<svg id="andriod" xmlns="http://www.w3.org/2000/svg" xmlns:xlink="http://www.w3.org/1999/xlink" width="120.37" height="142.147" viewBox="0 0 120.37 142.147">
  <defs>
    <clipPath id="clip-path">
      <rect id="Rectangle_1" data-name="Rectangle 1" width="120.37" height="142.147" fill="none"/>
    </clipPath>
  </defs>
  <g id="Group_6" data-name="Group 6" clip-path="url(#clip-path)">
    <path id="Path_23" data-name="Path 23" d="M128.551,0a1.8,1.8,0,0,1,.169,2.474c-1.923,3.47-3.8,6.968-5.726,10.521,12.256,6.941,19.5,17.021,20.1,31.508H63.956c.557-14.467,7.8-24.511,20.152-31.5-.792-1.469-1.591-2.956-2.394-4.441-1.122-2.073-2.223-4.158-3.381-6.21A1.719,1.719,0,0,1,78.566,0h1.111c.463.737.962,1.454,1.382,2.215,1.78,3.223,3.535,6.458,5.328,9.741a43.216,43.216,0,0,1,34.348-.014c.764-1.394,1.439-2.653,2.14-3.9Q125.146,4.016,127.44,0h1.111M85.478,30.282a3.364,3.364,0,0,0,3.354-3.175,3.42,3.42,0,0,0-3.268-3.419,3.321,3.321,0,0,0-3.248,3.262,3.27,3.27,0,0,0,3.162,3.331m36.17,0a3.273,3.273,0,0,0,3.15-3.342,3.323,3.323,0,0,0-3.259-3.252,3.43,3.43,0,0,0-3.259,3.292,3.361,3.361,0,0,0,3.367,3.3" transform="translate(-43.372)" fill="#a4c639"/>
    <path id="Path_24" data-name="Path 24" d="M127.928,214.616c0,.884,0,1.526,0,2.167-.044,6.1.055,12.214-.185,18.31-.17,4.319-4.084,7.651-8.515,7.711a8.685,8.685,0,0,1-8.749-7.342,21.916,21.916,0,0,1-.183-2.9c-.016-5.916-.008-11.832-.008-17.846H98.541v1.494c0,5.782.033,11.565-.011,17.347-.038,4.941-3.175,8.627-7.7,9.18a8.58,8.58,0,0,1-9.725-8.159c-.181-6.056-.14-12.118-.193-18.178,0-.545,0-1.089,0-1.879-2.509,0-4.863.1-7.2-.021a9.093,9.093,0,0,1-8.439-8.581c-.029-.554-.039-1.11-.039-1.665q0-27.131,0-54.263v-1.563h78.318c.025.492.067.94.067,1.387,0,18.226-.062,36.453.042,54.679.031,5.5-3.467,9.162-7.252,9.831a47.29,47.29,0,0,1-6.636.289c-.546.018-1.093,0-1.835,0" transform="translate(-44.232 -100.657)" fill="#a4c639"/>
    <path id="Path_25" data-name="Path 25" d="M319.689,170.146c0-6.383-.126-12.77.044-19.149a8.34,8.34,0,0,1,8.371-7.827,8.533,8.533,0,0,1,8.88,7.616,25.89,25.89,0,0,1,.144,2.628q.014,17.141.013,34.283c0,3.236-.927,6.022-3.644,7.979a8.311,8.311,0,0,1-8.669.936c-2.98-1.332-5-3.692-5.083-7.04-.157-6.472-.046-12.951-.046-19.426h-.009" transform="translate(-216.77 -97.091)" fill="#a4c639"/>
    <path id="Path_26" data-name="Path 26" d="M17.454,170.205c0,6.382.127,12.768-.042,19.146a8.331,8.331,0,0,1-8.437,7.9,8.579,8.579,0,0,1-8.818-7.7,26.073,26.073,0,0,1-.143-2.628C0,175.5.022,164.071,0,152.645c-.008-3.9,1.451-6.927,5.012-8.723,5.361-2.7,12.158,1.018,12.386,7,.244,6.419.055,12.855.056,19.284" transform="translate(0 -96.995)" fill="#a4c639"/>
  </g>
</svg>
