<svg id="angular" xmlns="http://www.w3.org/2000/svg" xmlns:xlink="http://www.w3.org/1999/xlink" width="116.482" height="121.679" viewBox="0 0 116.482 121.679">
  <defs>
    <clipPath id="clip-path">
      <rect id="Rectangle_4" data-name="Rectangle 4" width="116.482" height="121.679" fill="none"/>
    </clipPath>
  </defs>
  <g id="Group_12" data-name="Group 12" clip-path="url(#clip-path)">
    <path id="Path_33" data-name="Path 33" d="M39.417,134.765c-.083-.08-.326-.112-.163-.274.1-.1.271-.016.314.165l-.15.109" transform="translate(-27.528 -94.415)" fill="#fe5723"/>
    <path id="Path_34" data-name="Path 34" d="M.213,311.148c-.068-.107-.33-.163-.154-.332.115-.11.3-.044.386.122l-.232.21" transform="translate(0 -218.233)" fill="#fe5723"/>
    <path id="Path_35" data-name="Path 35" d="M40.189,135.588c-.085-.11-.169-.221-.254-.33l.149-.108.267.208-.162.23" transform="translate(-28.044 -94.909)" fill="#fe5723"/>
    <path id="Path_36" data-name="Path 36" d="M40.935,136.234a.418.418,0,0,1-.146-.155l.162-.229.265.211-.281.173" transform="translate(-28.644 -95.401)" fill="#fe5723"/>
    <path id="Path_37" data-name="Path 37" d="M200.811,0a75.186,75.186,0,0,1,9.066,3.055c15.5,5.5,30.967,11.063,46.464,16.554,1.058.375,1.262.739,1.12,1.871-.811,6.425-1.468,12.868-2.209,19.3s-1.531,12.861-2.275,19.294c-.647,5.6-1.247,11.2-1.889,16.8-.676,5.893-1.388,11.783-2.046,17.678a1.185,1.185,0,0,1-.738.991q-23.6,13.058-47.21,26.107a.725.725,0,0,1-.278.025q0-23.274,0-46.549c4.559-.019,9.119,0,13.677-.083a1.62,1.62,0,0,1,1.823,1.241c1.934,4.977,4,9.9,5.9,14.893a2.19,2.19,0,0,0,2.514,1.753c2.72-.133,5.451-.038,8.178-.038h3.026a2.86,2.86,0,0,0-.462-1.571Q221.95,60.891,208.419,30.465c-2.511-5.641-5.07-11.26-7.607-16.889q0-6.788,0-13.576" transform="translate(-141.02)" fill="#c2012f"/>
    <path id="Path_38" data-name="Path 38" d="M67.18,75.13q0,23.274,0,46.549-9.1-5-18.2-9.994-14.362-7.927-28.718-15.866a2.317,2.317,0,0,1-1.354-2.032c-1.3-11.618-2.676-23.226-4.016-34.84q-1.857-16.091-3.683-32.186c-.2-1.772-.32-3.559-.638-5.31-.211-1.164.251-1.5,1.253-1.856Q30,13.164,48.15,6.642,56.81,3.55,65.474.474c.554-.2,1.135-.318,1.7-.474q0,6.788,0,13.576a6.056,6.056,0,0,0-.371.626Q49.458,53.065,32.126,91.936c-.119.268-.442.562-.128.96,3.847,0,7.712-.049,11.575.031a1.709,1.709,0,0,0,1.9-1.34c2.015-5.156,4.107-10.282,6.159-15.422.243-.608.393-1.127,1.279-1.115,4.755.066,9.511.06,14.267.079" transform="translate(-7.387)" fill="#dc0131"/>
    <path id="Path_39" data-name="Path 39" d="M117.525,107.148c-4.756-.019-9.512-.013-14.268-.079-.885-.013-1.036.507-1.279,1.114-2.052,5.141-4.144,10.267-6.159,15.422a1.709,1.709,0,0,1-1.9,1.34c-3.863-.08-7.728-.031-11.575-.031-.314-.4.009-.691.128-.96Q99.8,85.08,117.153,46.22a6.145,6.145,0,0,1,.371-.626c2.537,5.629,5.1,11.248,7.606,16.889q13.539,30.423,27.047,60.861a2.858,2.858,0,0,1,.462,1.571h-3.026c-2.726,0-5.457-.094-8.177.038a2.19,2.19,0,0,1-2.514-1.753c-1.895-4.991-3.963-9.916-5.9-14.893a1.619,1.619,0,0,0-1.823-1.241c-4.558.079-9.118.064-13.677.083m0-35.459c-.048.011-.129.008-.14.034q-4.949,11.792-9.892,23.586c-.325.774.115.809.69.8q4.671-.044,9.342-.069c2.966.022,5.933-.01,8.9.091,1.263.043,1.394-.258.922-1.377-3.123-7.409-6.186-14.844-9.288-22.262-.118-.282-.1-.709-.53-.806" transform="translate(-57.732 -32.018)" fill="#fefdfd"/>
    <path id="Path_40" data-name="Path 40" d="M176.892,157.591q-4.671.033-9.342.069c-.575.005-1.015-.029-.69-.8q4.95-11.791,9.892-23.586c.011-.027.092-.024.14-.034q0,12.177,0,24.354" transform="translate(-117.1 -93.566)" fill="#dc0232"/>
    <path id="Path_41" data-name="Path 41" d="M200.814,157.591q0-12.177,0-24.354c.431.1.412.524.53.806,3.1,7.418,6.165,14.853,9.288,22.262.472,1.119.341,1.42-.922,1.377-2.963-.1-5.931-.069-8.9-.091" transform="translate(-141.022 -93.566)" fill="#c30230"/>
  </g>
</svg>
