<svg xmlns="http://www.w3.org/2000/svg" width="74" height="72" viewBox="0 0 74 72">
  <g id="cold-fusion" transform="translate(-7 -7)">
    <rect id="Rectangle_11" data-name="Rectangle 11" width="74" height="72" transform="translate(7 7)" fill="#263364"/>
    <g id="Group_28" data-name="Group 28" transform="translate(0.57 4.087)">
      <path id="Path_145" data-name="Path 145" d="M126.453,155.246l-.9.112a.54.54,0,0,0-.568.076l-3.848-.014a.325.325,0,0,0-.388-.048l-.9-.121a.327.327,0,0,0-.384-.088l-.531-.1a.369.369,0,0,0-.381-.117l-.352-.062a.373.373,0,0,0-.379-.136c-4.881-1.169-7.842-4.488-9.878-8.836-.231-.494-.418-1.008-.625-1.513a27.744,27.744,0,0,1-.139-15.9,19.138,19.138,0,0,1,5.137-8.157,16.608,16.608,0,0,1,10.682-4.282,19.078,19.078,0,0,1,6.927.842c2.008.855,2.008.855,2.008,3.035,0,1.28-.01,2.56,0,3.84.007.661-.262.826-.848.554a10.474,10.474,0,0,0-2.273-.929,1.491,1.491,0,0,0-.932-.3l-.349-.068a.323.323,0,0,0-.386-.083l-.71-.113a1.251,1.251,0,0,0-.93-.128,8.734,8.734,0,0,0-2.339.056.31.31,0,0,0-.39.061,3.9,3.9,0,0,0-1.263.259.843.843,0,0,0-.645.233c-3.664,1.513-5.559,4.416-6.321,8.159a20.243,20.243,0,0,0,.042,8.371c.812,3.888,2.708,6.952,6.711,8.134a13.919,13.919,0,0,0,10.269-1.163c.558-.069.742.193.735.733-.021,1.513-.045,3.029.008,4.541a1.565,1.565,0,0,1-1.017,1.632c-.686.308-1.4.564-2.095.842a.381.381,0,0,0-.378.135l-1.819.412a.584.584,0,0,0-.563.125" transform="translate(-86.663 -94.786)" fill="#b0d7f4"/>
      <path id="Path_146" data-name="Path 146" d="M279.682,140.048c-1.013.144-1.164-.382-1.157-1.27.034-4.054,0-8.109-.01-12.163.01-2.532.033-5.063.024-7.595,0-.846.366-1.973-.151-2.461-.5-.467-1.6-.329-2.448-.366-.654-.029-.955-.275-.9-.929.01-1.248.05-2.5.018-3.745-.016-.615.134-.9.806-.84s1.343-.032,2.009.025c.6.052.709-.191.685-.725a14.531,14.531,0,0,1,.88-6.094c1.233-3.108,3.332-5.24,6.741-5.854a2.68,2.68,0,0,0,.426-.152,14.186,14.186,0,0,1,4.179.173c1.217.316,1.313.42,1.313,1.648,0,1.31-.006,2.621,0,3.931,0,.4.011.758-.555.659a.345.345,0,0,0-.381-.124l-.354-.042a3.236,3.236,0,0,0-2.945.327,3.487,3.487,0,0,0-1.486,2.683,13.57,13.57,0,0,0-.091,3.44,11.83,11.83,0,0,0,2.968.107c1.905.034,1.9.01,1.926,1.932,0,.151.019.3.029.454-.01.73-.023,1.46-.029,2.19,0,.333.053.685-.346.855a.909.909,0,0,0-.752.081l-1.267.062a2.342,2.342,0,0,0-1.3.121l-1.094.043c-.122-.038-.165.016-.155.133q0,8.967,0,17.933c-.01,1.521-.058,3.043-.014,4.562.023.778-.261.988-1,.975-1.854-.032-3.71.012-5.565.026" transform="translate(-224.661 -79.897)" fill="#b0d7f4"/>
    </g>
  </g>
</svg>
