<svg xmlns="http://www.w3.org/2000/svg" width="130.46" height="124.492" viewBox="0 0 130.46 124.492">
  <g id="cordova" transform="translate(-67.5 -75.8)">
    <path id="XMLID_7_" d="M186.061,200.292H164.943l1.465-17.795H156.045l-1.465,17.795H110.844L109.379,182.5H99.016l1.465,17.795H79.363L67.5,123.217,97.158,75.8H168.3l29.658,47.417ZM162.37,99.526H143.324l1.286,8.9H120.884l1.286-8.9H103.054L91.191,123.253l5.932,47.417h71.144l5.932-47.417Zm-10.4,55.385c-1.644,0-2.966-4.931-2.966-11.041,0-6.075,1.322-11.041,2.966-11.041s2.966,4.931,2.966,11.041S153.615,154.912,151.972,154.912Zm-37.412.929c-1.644,0-2.966-4.931-2.966-11.041s1.322-11.041,2.966-11.041,2.966,4.931,2.966,11.041S116.2,155.841,114.56,155.841Z" fill="#444"/>
  </g>
</svg>
