<svg xmlns="http://www.w3.org/2000/svg" xmlns:xlink="http://www.w3.org/1999/xlink" width="30" height="30" viewBox="0 0 30 30">
  <defs>
    <clipPath id="clip-path">
      <rect id="Rectangle_48" data-name="Rectangle 48" width="30" height="30" fill="#25488e"/>
    </clipPath>
  </defs>
  <g id="m_w-app" data-name="m&amp;w-app" clip-path="url(#clip-path)">
    <path id="Path_625" data-name="Path 625" d="M30,5.743V23.8c-.49,1.258-.868,1.514-2.229,1.514H18.508c.145,1.04.281,2.035.425,3.029.073.5.079.5.625.507H19.7a.574.574,0,0,1,0,1.147c-.078.007-.156,0-.234,0H10.531a2.4,2.4,0,0,1-.263,0,.572.572,0,0,1,.01-1.143,3.416,3.416,0,0,1,.5,0c.161.01.224-.052.242-.212.042-.368.1-.734.154-1.1.1-.73.2-1.461.31-2.225H1.964A1.776,1.776,0,0,1,0,23.354Q0,14.77,0,6.186A1.774,1.774,0,0,1,1.96,4.229H14.771c0-.851-.007-1.661,0-2.47A1.744,1.744,0,0,1,16.093.065c.065-.017.128-.043.192-.066h9.261a.668.668,0,0,0,.106.049A1.745,1.745,0,0,1,27.06,1.877q0,.851,0,1.7v.652h1.151a1.749,1.749,0,0,1,1.723,1.322c.018.065.044.127.066.191m-2.94-.356V17.854a1.771,1.771,0,0,1-1.925,1.937H16.7a1.773,1.773,0,0,1-1.925-1.937q0-6.051,0-12.1v-.37H1.938c-.6,0-.785.19-.785.791V21.493H28.837V6.144a1.927,1.927,0,0,0-.006-.234.568.568,0,0,0-.515-.519c-.407-.019-.815-.005-1.257-.005M23.866,1.164c-.17.483-.309.584-.782.584-1.416,0-2.833-.009-4.249.006-.442,0-.774-.1-.86-.591H16.726c-.617,0-.8.185-.8.8V17.845c0,.6.2.794.786.794h8.381c.631,0,.816-.186.816-.823V1.728a.577.577,0,0,0-.565-.563c-.487-.013-.975,0-1.472,0M28.84,22.693H1.153v.6c0,.7.161.864.86.864H27.977a3.067,3.067,0,0,0,.322,0,.577.577,0,0,0,.531-.536c.017-.3,0-.6,0-.923M17.348,25.325H12.642l-.494,3.5h5.7l-.5-3.5" transform="translate(0 0.001)" fill="#25488e"/>
    <path id="Path_626" data-name="Path 626" d="M40.463,92.727c.31.292.591.547.861.814a.582.582,0,0,1,.072.9.59.59,0,0,1-.878-.084q-.594-.587-1.18-1.181a.58.58,0,0,1-.009-.921q.6-.618,1.222-1.222a.566.566,0,0,1,.857-.04.573.573,0,0,1-.055.857c-.272.279-.555.548-.89.878" transform="translate(-36.044 -83.704)" fill="#25488e"/>
    <path id="Path_627" data-name="Path 627" d="M133.81,92.718c-.324-.312-.61-.578-.884-.854a.578.578,0,1,1,.807-.813q.607.594,1.2,1.2a.583.583,0,0,1,.006.923q-.6.618-1.222,1.222a.576.576,0,1,1-.8-.82c.275-.276.56-.542.89-.86" transform="translate(-122.303 -83.711)" fill="#25488e"/>
    <path id="Path_628" data-name="Path 628" d="M74.121,201.224h1.7a.58.58,0,1,1,.043,1.157q-1.741.021-3.483,0a.58.58,0,1,1,.044-1.157c.566-.005,1.132,0,1.7,0" transform="translate(-66.159 -185.467)" fill="#25488e"/>
    <path id="Path_629" data-name="Path 629" d="M87.4,91.5a2.318,2.318,0,0,1-.132.31q-.7,1.231-1.419,2.457a.583.583,0,0,1-.83.3.589.589,0,0,1-.165-.865q.719-1.257,1.449-2.507a.558.558,0,0,1,.656-.315.6.6,0,0,1,.44.624" transform="translate(-78.108 -83.737)" fill="#25488e"/>
    <path id="Path_630" data-name="Path 630" d="M246.52,202.466c-.351,0-.7.006-1.053,0-.412-.01-.671-.239-.67-.579s.26-.563.674-.565h2.164a.58.58,0,0,1,.655.554.586.586,0,0,1-.63.588c-.38.013-.76,0-1.141,0Z" transform="translate(-225.629 -185.555)" fill="#25488e"/>
  </g>
</svg>
