<svg xmlns="http://www.w3.org/2000/svg" xmlns:xlink="http://www.w3.org/1999/xlink" width="30" height="30.051" viewBox="0 0 30 30.051">
  <defs>
    <clipPath id="clip-path">
      <rect id="Rectangle_61" data-name="Rectangle 61" width="30" height="30.051" fill="#25488e"/>
    </clipPath>
  </defs>
  <g id="ctbox" clip-path="url(#clip-path)">
    <path id="Path_651" data-name="Path 651" d="M14.821,0H26.654a1.622,1.622,0,0,0,.191.058,3.806,3.806,0,0,1,3.143,3.679q.023,3.345,0,6.69a3.782,3.782,0,0,1-3.219,3.665c-.37.053-.747.053-1.111.077l.644,1.737h.983a2.636,2.636,0,0,1,2.707,2.7q.009,1.7,0,3.4a2.637,2.637,0,0,1-2.685,2.7H26.282l-.085.3a6.672,6.672,0,0,1-4.509,4.731,13.192,13.192,0,0,1-1.36.311H9.666A1.035,1.035,0,0,0,9.5,30a6.664,6.664,0,0,1-5.52-4.393c-.114-.286-.186-.589-.282-.9-.38,0-.75.007-1.119,0A2.647,2.647,0,0,1,.133,22.9c-.051-.16-.089-.32-.133-.479V18.136a1.3,1.3,0,0,0,.061-.157A2.587,2.587,0,0,1,1.59,16.134a.334.334,0,0,0,.231-.37c-.007-1.662-.01-3.325,0-4.987a.4.4,0,0,0-.278-.431,2.634,2.634,0,1,1,3.72-2.957,2.62,2.62,0,0,1-1.417,2.959.421.421,0,0,0-.278.458c.01,1.594.005,3.188.005,4.782V15.9l.09.029a1.234,1.234,0,0,0,.124-.234,6.73,6.73,0,0,1,6.682-5.065h1.012V10.28c0-2.151-.012-4.3,0-6.454A3.619,3.619,0,0,1,13.334.567,8.915,8.915,0,0,1,14.821,0M11.482,12.385H10.3a4.983,4.983,0,0,0-4.969,4.989q-.013,2.963,0,5.926A4.975,4.975,0,0,0,10.3,28.288q4.7.017,9.4,0a4.973,4.973,0,0,0,4.96-4.966q.016-2.992,0-5.985a4.95,4.95,0,0,0-1-2.975.479.479,0,0,0-.434-.222c-2.3.008-4.607,0-6.91.009a.982.982,0,0,0-.415.1c-1,.49-1.99.99-2.985,1.486-.81.4-1.428.022-1.429-.883V12.386M13.239,13.6c.706-.353,1.35-.7,2.014-1a2.267,2.267,0,0,1,.89-.21c3.3-.015,6.6-.009,9.9-.01a2.058,2.058,0,0,0,2.2-2.2q0-3.094,0-6.189a2.064,2.064,0,0,0-2.221-2.235H15.446a2.061,2.061,0,0,0-2.207,2.218V13.6M26.43,22.947c.346,0,.667.015.986,0a.856.856,0,0,0,.814-.844q.018-1.787,0-3.575a.843.843,0,0,0-.749-.843c-.344-.033-.694-.007-1.051-.007ZM3.562,17.669c-.346,0-.667-.014-.986,0a.856.856,0,0,0-.814.844q-.017,1.787,0,3.575a.844.844,0,0,0,.75.842c.344.033.694.007,1.051.007ZM2.687,8.862a.88.88,0,1,0-.87-.88.89.89,0,0,0,.87.88" fill="#25488e"/>
    <path id="Path_652" data-name="Path 652" d="M160.573,294.993h-1.666a.882.882,0,1,1-.011-1.759h3.391a.881.881,0,1,1,.011,1.758c-.575.005-1.15,0-1.725,0" transform="translate(-145.593 -270.283)" fill="#25488e"/>
    <path id="Path_653" data-name="Path 653" d="M124.233,227.521c0-.293-.006-.585,0-.878a.876.876,0,1,1,1.752-.016q.018.892,0,1.785a.876.876,0,0,1-1.752-.014c-.008-.292,0-.585,0-.878" transform="translate(-114.509 -208.093)" fill="#25488e"/>
    <path id="Path_654" data-name="Path 654" d="M238.251,227.518c0,.293.007.585,0,.878a.877.877,0,1,1-1.753-.01q-.012-.863,0-1.726a.877.877,0,1,1,1.754.01c.006.283,0,.566,0,.849" transform="translate(-217.983 -208.093)" fill="#25488e"/>
    <path id="Path_655" data-name="Path 655" d="M197.992,58.735h-4.711a.876.876,0,0,1-.854-1.243.9.9,0,0,1,.9-.518q3.438.007,6.876,0h2.516a.885.885,0,1,1,.007,1.76h-4.74" transform="translate(-177.288 -52.513)" fill="#25488e"/>
    <path id="Path_656" data-name="Path 656" d="M198.1,101.988h4.711a.876.876,0,0,1,.854,1.243.9.9,0,0,1-.9.519q-3.145-.007-6.291,0h-3.1a.885.885,0,1,1-.007-1.76h4.74" transform="translate(-177.33 -94.006)" fill="#25488e"/>
  </g>
</svg>
