<svg xmlns="http://www.w3.org/2000/svg" xmlns:xlink="http://www.w3.org/1999/xlink" width="30" height="30.004" viewBox="0 0 30 30.004">
  <defs>
    <clipPath id="clip-path">
      <rect id="Rectangle_60" data-name="Rectangle 60" width="30" height="30.004" fill="#25488e"/>
    </clipPath>
  </defs>
  <g id="mcom" clip-path="url(#clip-path)">
    <path id="Path_647" data-name="Path 647" d="M2.581,30a6.878,6.878,0,0,1-1.053-.4A2.886,2.886,0,0,1,.006,26.974c-.011-2.139,0-4.277,0-6.416Q0,11.827,0,3.1A2.986,2.986,0,0,1,2.3.091,3.531,3.531,0,0,1,3.114,0H14.888A2.991,2.991,0,0,1,18,3.1c0,.293,0,.586,0,.879a.5.5,0,0,1-.478.527A.507.507,0,0,1,17,3.977c-.011-.341,0-.684-.006-1.025A2.006,2.006,0,0,0,15.077,1a.341.341,0,0,0-.382.224c-.292.617-.612,1.22-.91,1.834A1.547,1.547,0,0,1,12.27,4Q9,3.987,5.738,4A1.553,1.553,0,0,1,4.22,3.059c-.3-.622-.62-1.237-.92-1.859A.309.309,0,0,0,2.962,1,2.019,2.019,0,0,0,1.005,2.89C1,3,1,3.121,1,3.238V26.763a2.031,2.031,0,0,0,2.251,2.243h11.54A2,2,0,0,0,17,27.015a.5.5,0,1,1,.995.057A3,3,0,0,1,15.6,29.944a1.866,1.866,0,0,0-.188.06ZM4.316,1.013c.308.608.584,1.2.907,1.759a.622.622,0,0,0,.469.215C7.9,3,10.1,2.994,12.3,3a.582.582,0,0,0,.574-.365c.213-.438.435-.872.651-1.308.048-.1.091-.2.143-.313Z" fill="#25488e"/>
    <path id="Path_648" data-name="Path 648" d="M77.158,87.73a6.161,6.161,0,0,1-.249.771,2.847,2.847,0,0,1-2.684,1.8q-7.059.032-14.118,0a2.938,2.938,0,0,1-2.934-2.9c-.026-1-.014-2.012,0-3.017a.394.394,0,0,0-.247-.4c-1.7-.9-3.39-1.808-5.089-2.7a1.027,1.027,0,0,1,0-1.926c1.69-.892,3.373-1.8,5.064-2.69a.429.429,0,0,0,.274-.447c-.015-.928-.01-1.855-.005-2.783a2.981,2.981,0,0,1,3.115-3.114H74.023a2.976,2.976,0,0,1,3.1,2.511.26.26,0,0,0,.045.072ZM52.172,80.317c.118.065.2.113.287.158,1.763.941,3.525,1.886,5.293,2.82a.7.7,0,0,1,.418.7c-.012,1.074-.008,2.148,0,3.223a1.982,1.982,0,0,0,2.089,2.1h13.8a2,2,0,0,0,2.1-2.118V73.431a2,2,0,0,0-2.115-2.111H60.278a1.987,1.987,0,0,0-2.112,2.106c0,1.045-.015,2.09.006,3.135a.809.809,0,0,1-.5.828c-1.291.667-2.568,1.36-3.85,2.044-.54.288-1.079.578-1.648.883" transform="translate(-47.158 -64.816)" fill="#25488e"/>
    <path id="Path_649" data-name="Path 649" d="M62.122,345.051h3.894a.523.523,0,0,1,.533.282.5.5,0,0,1-.38.709,1.748,1.748,0,0,1-.292.01H58.124a.5.5,0,0,1-.507-.5.48.48,0,0,1,.529-.5h3.976" transform="translate(-53.103 -318.042)" fill="#25488e"/>
    <path id="Path_650" data-name="Path 650" d="M172.763,128.041H168.2a2,2,0,0,1-2.18-2.187c0-2.548.026-5.1-.012-7.644a2.05,2.05,0,0,1,2.183-2.162.523.523,0,0,0,.576-.3,1.41,1.41,0,0,1,1.326-.7c1.152,0,2.3,0,3.455,0h3.338a1.49,1.49,0,0,1,1.624,1.617c0,.81,0,1.621.006,2.431a.411.411,0,0,0,.12.293,2.038,2.038,0,0,1,.872,1.846.654.654,0,0,0,.227.58,1.012,1.012,0,0,1,.271.645c.033.721.015,1.444.011,2.167a.958.958,0,0,1-.353.741.523.523,0,0,0-.149.307c-.031.251,0,.512-.046.757a1.977,1.977,0,0,1-2.047,1.607c-1.337.007-2.674,0-4.011,0h-.644m-5.75-8.154v5.959c0,.831.361,1.192,1.2,1.192,3.035,0,6.07-.015,9.1.011a1.1,1.1,0,0,0,1.148-1.5c-.3,0-.6.008-.9,0a2,2,0,0,1-.156-3.985c.357-.025.717,0,1.067,0,.183-1.052-.365-1.534-1.235-1.524-2.937.032-5.874.019-8.811,0a13.86,13.86,0,0,1-1.413-.149m10.494-.859v-2.308c0-.527-.147-.674-.68-.674h-6.767a.486.486,0,0,0-.546.54c-.007.2,0,.41,0,.615v1.824Zm1.5,3.536c-.563,0-1.1-.028-1.633.009a.947.947,0,0,0-.8.884.927.927,0,0,0,.668,1.014,16.7,16.7,0,0,0,1.767.1Zm-10.511-5.5c-.531-.044-1.018-.046-1.325.45a.943.943,0,0,0,.008,1.073,1.234,1.234,0,0,0,1.316.445Z" transform="translate(-153.01 -106.039)" fill="#25488e"/>
  </g>
</svg>
