<svg xmlns="http://www.w3.org/2000/svg" xmlns:xlink="http://www.w3.org/1999/xlink" width="30.121" height="30.18" viewBox="0 0 30.121 30.18">
  <defs>
    <clipPath id="clip-path">
      <rect id="Rectangle_59" data-name="Rectangle 59" width="30.121" height="30.18" fill="#25488e"/>
    </clipPath>
  </defs>
  <g id="cpa" clip-path="url(#clip-path)">
    <path id="Path_633" data-name="Path 633" d="M2.267,30.18l-.736-.747c.006-.021,0-.046.018-.059.978-.98,1.948-1.968,2.939-2.935A2.315,2.315,0,0,1,6.123,25.8a2.878,2.878,0,0,1,.4,0,2.027,2.027,0,0,0,2-.975c-.093-.007-.179-.018-.265-.019H5.866A1.482,1.482,0,0,1,4.327,23.26V17.245A1.536,1.536,0,0,1,4.8,16.106c.543-.539,1.09-1.074,1.62-1.624a.9.9,0,0,0-.381-1.549.824.824,0,0,0-.832.212c-.906.892-1.809,1.787-2.695,2.7a.794.794,0,0,0-.163.506q-.02,1.969,0,3.938a2.609,2.609,0,0,1-.808,1.975c-.272.267-.532.547-.795.819L0,22.344l.835-.785a1.613,1.613,0,0,0,.517-1.247c-.009-1.323,0-2.646-.007-3.969a1.7,1.7,0,0,1,.542-1.3c.754-.737,1.49-1.492,2.242-2.23a.617.617,0,0,0,.2-.486q-.008-5.317,0-10.635A1.513,1.513,0,0,1,6.032,0h11.5A1.506,1.506,0,0,1,19.21,1.663q0,2.946,0,5.891v.352c.522.049,1.034.084,1.541.147A10.91,10.91,0,0,1,22.7,29.194a10.661,10.661,0,0,1-3.19.568,13.822,13.822,0,0,1-4.209-.4,10.935,10.935,0,0,1-5.675-3.786c-.057-.072-.117-.142-.206-.251-.239.254-.458.5-.694.733a2.216,2.216,0,0,1-1.787.715A2.666,2.666,0,0,0,4.5,27.8c-.632.734-1.364,1.382-2.046,2.074a1.531,1.531,0,0,0-.184.309M8.3,8.931v9.662A10.769,10.769,0,0,0,8.35,19.8a9.671,9.671,0,0,0,5.3,7.845,11.082,11.082,0,0,0,8.26.739,9.913,9.913,0,0,0-2.8-19.451q-5.24-.007-10.479,0ZM16.128.994c-.072.282-.138.55-.208.817a1.479,1.479,0,0,1-1.486,1.165q-2.666.007-5.332,0A1.478,1.478,0,0,1,7.616,1.811c-.071-.267-.137-.535-.2-.792A.424.424,0,0,0,7.332,1h-1.3c-.569,0-.712.143-.712.713V11.976a2.011,2.011,0,0,1,1.987.634V7.934H18.218V1.587c0-.368-.17-.577-.494-.585C17.2.989,16.672,1,16.13,1M8.486,23.814c-.043-.1-.065-.153-.091-.206A10.924,10.924,0,0,1,7.3,18.7c.009-1.126,0-2.253,0-3.379,0-.084-.012-.169-.021-.288-.612.612-1.2,1.182-1.761,1.77a.7.7,0,0,0-.193.433q-.018,3.022-.006,6.045a.482.482,0,0,0,.514.534c.868.009,1.735,0,2.651,0M8.444,1c.05.205.094.394.143.581a.491.491,0,0,0,.518.4c1.776,0,3.551.009,5.327-.013a.7.7,0,0,0,.477-.307A2.311,2.311,0,0,0,15.094,1Z" fill="#25488e"/>
    <path id="Path_634" data-name="Path 634" d="M257.555,24.9h-1.471v-.983h1.471l-.009-.009v1Z" transform="translate(-234.868 -21.922)" fill="#25488e"/>
    <path id="Path_635" data-name="Path 635" d="M285.71,23.912h1.471V24.9H285.71l.008.009v-1Z" transform="translate(-262.039 -21.922)" fill="#25488e"/>
    <path id="Path_636" data-name="Path 636" d="M274.724,35.874v1.471h-.984V35.874l-.008.009h1Z" transform="translate(-251.054 -32.902)" fill="#25488e"/>
    <path id="Path_637" data-name="Path 637" d="M327.635,55.632v-1.47h.983v1.471l.009-.008h-1Z" transform="translate(-300.483 -49.674)" fill="#25488e"/>
    <path id="Path_638" data-name="Path 638" d="M311.449,72.8h-1.471v-.983h1.471l-.009-.008v1Z" transform="translate(-284.297 -65.86)" fill="#25488e"/>
    <path id="Path_639" data-name="Path 639" d="M339.6,71.818h1.471V72.8H339.6l.009.009v-1Z" transform="translate(-311.462 -65.86)" fill="#25488e"/>
    <path id="Path_640" data-name="Path 640" d="M328.619,83.78v1.471h-.984V83.78l-.008.009h1Z" transform="translate(-300.484 -76.839)" fill="#25488e"/>
    <path id="Path_641" data-name="Path 641" d="M273.74,7.727V6.256h.984V7.727l.008-.009h-1Z" transform="translate(-251.053 -5.737)" fill="#25488e"/>
    <path id="Path_642" data-name="Path 642" d="M143.522,167.671h5.765a1.5,1.5,0,0,1,1.643,1.63v6.664a1.494,1.494,0,0,1-1.616,1.627H137.659a1.5,1.5,0,0,1-1.612-1.631q0-3.332,0-6.664a1.5,1.5,0,0,1,1.616-1.627h5.858m-.033.992h-5.767c-.528,0-.682.154-.682.682v6.573c0,.527.155.682.682.682h11.534c.527,0,.682-.156.682-.683v-6.573c0-.527-.155-.681-.683-.681h-5.767" transform="translate(-124.776 -153.779)" fill="#25488e"/>
    <rect id="Rectangle_50" data-name="Rectangle 50" width="3.941" height="0.949" transform="translate(10.782 11.435)" fill="#25488e"/>
    <rect id="Rectangle_51" data-name="Rectangle 51" width="3.434" height="0.955" transform="translate(18.739 25.324)" fill="#25488e"/>
    <rect id="Rectangle_52" data-name="Rectangle 52" width="1.444" height="0.965" transform="translate(15.756 11.417)" fill="#25488e"/>
    <rect id="Rectangle_53" data-name="Rectangle 53" width="0.965" height="0.948" transform="translate(23.19 25.322)" fill="#25488e"/>
    <path id="Path_643" data-name="Path 643" d="M77.461,47.779c1.077-.091,1.482.355,1.483,1.475,0,1.147-.382,1.521-1.518,1.522s-1.5-.413-1.5-1.48c0-1.163.373-1.609,1.534-1.517m.456,1.01h-.958v.952h.958Z" transform="translate(-69.636 -43.81)" fill="#25488e"/>
    <path id="Path_644" data-name="Path 644" d="M126.824,49.255c.091,1.144-.359,1.523-1.5,1.52-1.1,0-1.5-.369-1.5-1.512,0-1.117.385-1.577,1.5-1.485h.031c1.074-.091,1.554.352,1.462,1.476m-1.965.486h.947v-.963h-.947Z" transform="translate(-113.568 -43.81)" fill="#25488e"/>
    <path id="Path_645" data-name="Path 645" d="M171.855,49.241c-.094-1.107.379-1.563,1.465-1.475.174.014.351,0,.526,0a.992.992,0,0,1,.983.991q.013.5,0,.991a.988.988,0,0,1-.983.991c-.32.01-.64.006-.96,0a1,1,0,0,1-1.031-1.038v-.465m1.964-.457h-.956v.954h.956Z" transform="translate(-157.606 -43.799)" fill="#25488e"/>
    <path id="Path_646" data-name="Path 646" d="M162.007,191.617c.186,0,.372-.007.557,0a1.486,1.486,0,0,1,.014,2.968c-.381.018-.764.016-1.145,0a1.486,1.486,0,0,1,.017-2.97c.186-.007.372,0,.557,0m-.011.994c-.176,0-.352-.012-.527,0a.486.486,0,0,0-.46.493.48.48,0,0,0,.465.487c.351.016.7.017,1.053,0a.48.48,0,0,0,.46-.492.487.487,0,0,0-.466-.488c-.174-.014-.351,0-.527,0" transform="translate(-146.758 -175.739)" fill="#25488e"/>
    <rect id="Rectangle_54" data-name="Rectangle 54" width="3.434" height="0.955" transform="translate(20.712 16.885)" fill="#25488e"/>
    <rect id="Rectangle_55" data-name="Rectangle 55" width="1.94" height="0.965" transform="translate(13.281 20.352)" fill="#25488e"/>
    <rect id="Rectangle_56" data-name="Rectangle 56" width="1.946" height="0.956" transform="translate(16.257 20.362)" fill="#25488e"/>
    <rect id="Rectangle_57" data-name="Rectangle 57" width="1.949" height="0.963" transform="translate(19.225 20.353)" fill="#25488e"/>
    <rect id="Rectangle_58" data-name="Rectangle 58" width="1.942" height="0.956" transform="translate(22.205 20.356)" fill="#25488e"/>
  </g>
</svg>
