<svg xmlns="http://www.w3.org/2000/svg" width="121.964" height="62.986" viewBox="0 0 121.964 62.986">
  <g id="MySQL" transform="translate(0 0)">
    <path id="Path_123" data-name="Path 123" d="M0,141.818H4.018V125.951l6.22,13.832c.734,1.674,1.739,2.267,3.709,2.267s2.936-.592,3.671-2.267l6.22-13.832v15.867h4.018V125.977a2.414,2.414,0,0,0-1.893-2.679c-3.052-.953-5.1-.129-6.027,1.932l-6.1,13.651L7.92,125.231c-.889-2.061-2.975-2.885-6.027-1.932A2.414,2.414,0,0,0,0,125.977ZM31.2,128.9h4.017v8.741c-.038.475.152,1.589,2.354,1.624,1.123.018,8.667,0,8.737,0V128.861h4.026c.018,0,0,14.194,0,14.254.022,3.5-4.344,4.261-6.356,4.32H31.285v-2.7c.023,0,12.678,0,12.71,0,2.586-.273,2.281-1.559,2.28-1.991v-1.054H37.734c-3.974-.037-6.5-1.771-6.535-3.766,0-.185.086-8.93,0-9.017Z" transform="translate(0 -84.449)" fill="#00618a"/>
    <path id="Path_124" data-name="Path 124" d="M170.757,142.628h11.552a8.911,8.911,0,0,0,3.709-.773c1.738-.8,2.589-1.88,2.589-3.3v-2.936c0-1.159-.966-2.241-2.859-2.962a9.876,9.876,0,0,0-3.439-.593h-4.869c-1.622,0-2.395-.489-2.588-1.571a1.146,1.146,0,0,1-.039-.361v-1.829a1.067,1.067,0,0,1,.039-.335c.193-.824.618-1.056,2.048-1.185.116,0,.27-.026.386-.026h11.475v-2.678H177.48a10.84,10.84,0,0,0-3.245.334c-2.4.747-3.439,1.932-3.439,3.992v2.344c0,1.8,2.048,3.349,5.486,3.709.387.026.773.051,1.159.051h4.173a2.133,2.133,0,0,1,.425.026c1.275.1,1.816.335,2.2.8a.958.958,0,0,1,.309.721V138.4a1.341,1.341,0,0,1-.579.953,2.85,2.85,0,0,1-1.7.567c-.155,0-.27.026-.425.026H170.757v2.678Zm42.916-4.662c0,2.756,2.048,4.3,6.182,4.611.386.026.773.051,1.159.051h10.471v-2.679H220.937c-2.357,0-3.245-.593-3.245-2.009V124.082h-4.018v13.884Zm-22.5.14v-9.55c0-2.426,1.7-3.9,5.072-4.362a7.707,7.707,0,0,1,1.084-.077h7.627a8.259,8.259,0,0,1,1.123.077c3.368.465,5.072,1.936,5.072,4.362v9.55a3.487,3.487,0,0,1-2.391,3.708l3.958,3.573h-4.665l-3.2-2.89-3.224.2h-4.3a8.906,8.906,0,0,1-2.362-.336c-2.555-.7-3.794-2.039-3.794-4.259Zm4.337-.232a1.763,1.763,0,0,0,.078.413c.232,1.11,1.278,1.729,2.865,1.729h3.65l-3.353-3.027h4.665l2.925,2.64a1.9,1.9,0,0,0,1.018-1.291,1.324,1.324,0,0,0,.038-.387v-9.163a1.244,1.244,0,0,0-.038-.362c-.232-1.033-1.278-1.626-2.826-1.626h-6.078c-1.781,0-2.942.774-2.942,1.987v9.085Z" transform="translate(-117.329 -85.258)" fill="#e48e00"/>
    <path id="Path_125" data-name="Path 125" d="M284.571,34.38a14.136,14.136,0,0,0-5.969.843c-.458.193-1.189.2-1.264.773.252.264.291.658.491.983a7.748,7.748,0,0,0,1.615,1.9c.634.479,1.287.99,1.967,1.4,1.209.737,2.558,1.158,3.722,1.9.686.435,1.367.983,2.037,1.475.331.243.553.62.983.773v-.07c-.226-.288-.284-.683-.492-.983l-.913-.913a14.982,14.982,0,0,0-3.231-3.09c-.961-.69-3.111-1.621-3.512-2.739l-.07-.07a15.483,15.483,0,0,0,2.107-.491c1.056-.283,2-.21,3.09-.492l1.475-.421v-.281c-.551-.566-.944-1.314-1.546-1.826a45.024,45.024,0,0,0-5.056-3.793c-.98-.619-2.192-1.021-3.231-1.545-.349-.176-.964-.268-1.194-.562a14.888,14.888,0,0,1-1.264-2.388c-.881-1.7-1.747-3.552-2.528-5.338a28.792,28.792,0,0,0-1.545-3.512A31.017,31.017,0,0,0,258.3,4.391a14.305,14.305,0,0,0-3.933-1.264l-2.318-.141a12.344,12.344,0,0,1-1.4-1.053c-1.762-1.113-6.28-3.533-7.584-.351C242.24,3.59,244.3,5.55,245.03,6.568a15.06,15.06,0,0,1,1.545,2.318c.242.528.284,1.057.492,1.615a37.1,37.1,0,0,0,1.615,4.144,14.653,14.653,0,0,0,1.124,1.9c.259.353.7.509.772,1.054a8.583,8.583,0,0,0-.7,2.318c-1.1,3.461-.684,7.763.913,10.324.49.786,1.644,2.473,3.231,1.826,1.388-.565,1.078-2.317,1.475-3.863.09-.35.034-.608.211-.843v.07l1.264,2.528a17.209,17.209,0,0,0,4,4.144c.73.551,1.3,1.5,2.247,1.826v-.07h-.07c-.183-.285-.469-.4-.7-.632a16.094,16.094,0,0,1-1.615-1.826,42.724,42.724,0,0,1-3.441-5.619c-.492-.945-.92-1.988-1.335-2.95-.16-.371-.158-.931-.491-1.124a14.042,14.042,0,0,0-1.475,2.107,18.036,18.036,0,0,0-.843,4.635c-.123.044-.069.014-.141.07-.978-.236-1.322-1.243-1.685-2.107a13.276,13.276,0,0,1-.282-8.217c.21-.651,1.156-2.7.773-3.3-.183-.6-.786-.947-1.124-1.4a11.058,11.058,0,0,1-1.124-1.967c-.752-1.7-1.1-3.615-1.9-5.337A15.587,15.587,0,0,0,246.224,5.8a13.923,13.923,0,0,1-1.686-2.388c-.161-.348-.379-.906-.141-1.264a.558.558,0,0,1,.422-.421c.407-.314,1.542.1,1.966.281a17.128,17.128,0,0,1,3.02,1.545c.458.3.921.891,1.475,1.054h.632c.989.227,2.1.07,3.02.351a18.252,18.252,0,0,1,4.424,2.107,27.389,27.389,0,0,1,9.622,10.535c.364.7.522,1.366.843,2.107.647,1.495,1.463,3.033,2.107,4.495a21,21,0,0,0,2.177,4.144c.478.638,2.322.98,3.16,1.334a18.6,18.6,0,0,1,2.107.843c1.063.641,2.093,1.4,3.09,2.107.5.351,2.03,1.121,2.107,1.756Z" transform="translate(-166.88)" fill="#00618a"/>
    <path id="Path_126" data-name="Path 126" d="M273.03,24.357a5.038,5.038,0,0,0-1.264.14v.07h.07a9.6,9.6,0,0,0,.983,1.264l.7,1.475.07-.07a1.715,1.715,0,0,0,.632-1.545c-.174-.183-.2-.414-.351-.632C273.672,24.768,273.284,24.6,273.03,24.357Z" transform="translate(-186.733 -16.735)" fill="#00618a" fill-rule="evenodd"/>
    <path id="Path_127" data-name="Path 127" d="M370.87,168.047a2.961,2.961,0,1,0,2.961-2.961,2.922,2.922,0,0,0-2.961,2.961Zm5.259,0a2.3,2.3,0,1,1-2.3-2.345A2.291,2.291,0,0,1,376.129,168.047Zm-1.5,1.69h.663l-.971-1.484c.521-.055.916-.308.916-.924,0-.687-.434-.971-1.271-.971h-1.319v3.379h.569v-1.461h.529l.885,1.461Zm-1.414-1.934v-.971h.655c.34,0,.75.063.75.458,0,.473-.371.513-.8.513Z" transform="translate(-254.829 -113.432)" fill="#e48e00" fill-rule="evenodd"/>
  </g>
</svg>
