<svg xmlns="http://www.w3.org/2000/svg" width="92.279" height="107.668" viewBox="0 0 92.279 107.668">
  <g id="nodejs" transform="translate(-63.999 -31.993)">
    <path id="Path_147" data-name="Path 147" d="M151.9,55.562l-37.351-22.4a8.891,8.891,0,0,0-8.807,0L68.383,55.56A9.18,9.18,0,0,0,64,63.435v44.739a9.194,9.194,0,0,0,4.383,7.882l9.8,5.849.055.031c4.946,2.53,6.839,2.53,9.033,2.53,7.724,0,12.523-5,12.523-13.046V68.041a2.045,2.045,0,0,0-2.023-2.062H92.387a2.045,2.045,0,0,0-2.023,2.062V111.42a3.6,3.6,0,0,1-1.646,3.141c-1.418.865-3.477.682-5.8-.517l-9.387-5.65a.264.264,0,0,1-.115-.221V64.067a.317.317,0,0,1,.142-.255l36.489-22.349a.2.2,0,0,1,.175,0l36.51,22.349a.322.322,0,0,1,.132.264v44.1a.308.308,0,0,1-.108.24L110.214,130.2a.293.293,0,0,1-.192,0l-9.331-5.542a1.874,1.874,0,0,0-1.882-.1l-.082.048A26.27,26.27,0,0,1,93.07,127.4c-.389.142-1.3.481-1.384,1.387s.791,1.55,1.564,2l12.472,7.659a8.572,8.572,0,0,0,4.4,1.218h.139a8.62,8.62,0,0,0,4.285-1.218l37.351-22.38a9.221,9.221,0,0,0,4.383-7.889V63.435A9.182,9.182,0,0,0,151.9,55.562Z" transform="translate(0)" fill="#539e43"/>
    <path id="Path_148" data-name="Path 148" d="M244.156,202.25c-8.961,0-10.872-2.5-11.439-6.546a2.026,2.026,0,0,0-1.975-1.759h-4.758A2.028,2.028,0,0,0,224,196.007c0,3.5,1.23,14.94,20.167,14.94h0c5.859,0,10.732-1.37,14.089-3.963a13.237,13.237,0,0,0,5.155-10.862c0-9.024-5.888-11.494-17.483-13.109-11.787-1.639-11.787-2.473-11.787-4.3,0-1.314,0-4.393,8.521-4.393,6.063,0,9.31.767,10.348,4.806a2.007,2.007,0,0,0,1.937,1.6h4.775a1.98,1.98,0,0,0,1.48-.687,2.141,2.141,0,0,0,.509-1.548c-.618-8.543-6.863-12.876-19.042-12.876-11.069,0-17.675,4.986-17.675,13.337,0,9.156,6.846,11.744,17.132,12.816,12.016,1.242,12.016,3.054,12.016,4.655C254.148,198.922,253.113,202.25,244.156,202.25Z" transform="translate(-121.55 -101.515)" fill="#539e43"/>
  </g>
</svg>
